<svg width="208" height="47" viewBox="0 0 208 47" fill="none" xmlns="http://www.w3.org/2000/svg">
<path d="M31.696 46L30.032 32.816H12.688L5.776 46H0.272L24.144 1.328H30.992L37.008 46H31.696ZM26.768 6.256H26.448L15.056 28.208H29.52L26.768 6.256ZM53.331 1.328H69.779C73.235 1.328 75.8803 2.18133 77.715 3.888C79.5497 5.59466 80.467 7.92 80.467 10.864C80.467 12.2293 80.2537 13.552 79.827 14.832C79.443 16.0693 78.867 17.2 78.099 18.224C77.331 19.248 76.371 20.144 75.219 20.912C74.1097 21.6373 72.8297 22.1707 71.379 22.512L71.315 22.832C73.363 23.3013 74.9417 24.176 76.051 25.456C77.203 26.6933 77.779 28.464 77.779 30.768C77.779 32.8587 77.395 34.8213 76.627 36.656C75.9017 38.4907 74.8777 40.112 73.555 41.52C72.275 42.8853 70.739 43.9733 68.947 44.784C67.1977 45.5947 65.2777 46 63.187 46H44.371L53.331 1.328ZM63.123 41.392C65.3417 41.392 67.219 40.816 68.755 39.664C70.291 38.4693 71.2937 36.656 71.763 34.224C71.9763 33.1147 72.1257 32.304 72.211 31.792C72.2963 31.2373 72.339 30.8107 72.339 30.512C72.339 28.848 71.7843 27.568 70.675 26.672C69.5657 25.7333 67.9443 25.264 65.811 25.264H53.651L50.451 41.392H63.123ZM65.363 20.784C67.7523 20.784 69.715 20.2933 71.251 19.312C72.8297 18.288 73.8537 16.6453 74.323 14.384C74.5363 13.4027 74.6643 12.656 74.707 12.144C74.7497 11.5893 74.771 11.1627 74.771 10.864C74.771 9.328 74.3017 8.13333 73.363 7.28C72.4243 6.384 70.995 5.936 69.075 5.936H57.491L54.547 20.784H65.363ZM101.072 46.768C98.8533 46.768 96.784 46.4053 94.864 45.68C92.9867 44.912 91.344 43.8027 89.936 42.352C88.5707 40.8587 87.4827 39.024 86.672 36.848C85.904 34.672 85.52 32.176 85.52 29.36C85.52 25.648 86.032 22.064 87.056 18.608C88.08 15.152 89.5733 12.1013 91.536 9.456C93.4987 6.768 95.8667 4.61333 98.64 2.992C101.456 1.37066 104.635 0.559998 108.176 0.559998C110.395 0.559998 112.443 0.943998 114.32 1.712C116.24 2.48 117.883 3.61066 119.248 5.104C120.656 6.55466 121.744 8.368 122.512 10.544C123.323 12.6773 123.728 15.152 123.728 17.968C123.728 21.68 123.216 25.264 122.192 28.72C121.168 32.176 119.675 35.248 117.712 37.936C115.749 40.5813 113.36 42.7147 110.544 44.336C107.771 45.9573 104.613 46.768 101.072 46.768ZM101.584 42.096C105.552 42.096 108.859 40.7947 111.504 38.192C114.149 35.5467 115.941 31.8987 116.88 27.248L118.16 20.848C118.331 20.0373 118.437 19.2693 118.48 18.544C118.565 17.776 118.608 17.072 118.608 16.432C118.608 13.0187 117.648 10.3093 115.728 8.304C113.808 6.256 111.12 5.232 107.664 5.232C103.696 5.232 100.389 6.55466 97.744 9.2C95.0987 11.8027 93.3067 15.4293 92.368 20.08L91.088 26.48C90.9173 27.2907 90.7893 28.08 90.704 28.848C90.6613 29.5733 90.64 30.256 90.64 30.896C90.64 34.3093 91.6 37.04 93.52 39.088C95.44 41.0933 98.128 42.096 101.584 42.096ZM141.758 1.328L136.254 28.784C136.04 29.7653 135.891 30.5973 135.806 31.28C135.763 31.9627 135.742 32.6667 135.742 33.392C135.742 36.1227 136.467 38.256 137.918 39.792C139.368 41.328 141.374 42.096 143.934 42.096C145.726 42.096 147.304 41.84 148.67 41.328C150.078 40.816 151.315 40.0053 152.382 38.896C153.448 37.744 154.344 36.272 155.07 34.48C155.838 32.6453 156.478 30.4267 156.99 27.824L162.302 1.328H167.486L162.11 28.208C161.427 31.6213 160.552 34.5227 159.486 36.912C158.462 39.2587 157.182 41.1787 155.646 42.672C154.152 44.1227 152.382 45.168 150.334 45.808C148.328 46.448 146.003 46.768 143.358 46.768C139.347 46.768 136.232 45.6587 134.014 43.44C131.795 41.1787 130.686 38 130.686 33.904C130.686 32.9227 130.728 31.8773 130.814 30.768C130.942 29.6587 131.134 28.464 131.39 27.184L136.574 1.328H141.758ZM192.526 5.936L184.526 46H179.342L187.342 5.936H173.71L174.606 1.328H207.054L206.158 5.936H192.526Z" fill="#C097C6"/>
</svg>
