<svg width="213" height="73" viewBox="0 0 213 73" fill="none" xmlns="http://www.w3.org/2000/svg">
<mask id="mask0_27_11" style="mask-type:alpha" maskUnits="userSpaceOnUse" x="0" y="26" width="208" height="47">
<path d="M31.696 72L30.032 58.816H12.688L5.776 72H0.272L24.144 27.328H30.992L37.008 72H31.696ZM26.768 32.256H26.448L15.056 54.208H29.52L26.768 32.256ZM53.331 27.328H69.779C73.235 27.328 75.8803 28.1813 77.715 29.888C79.5497 31.5947 80.467 33.92 80.467 36.864C80.467 38.2293 80.2537 39.552 79.827 40.832C79.443 42.0693 78.867 43.2 78.099 44.224C77.331 45.248 76.371 46.144 75.219 46.912C74.1097 47.6373 72.8297 48.1707 71.379 48.512L71.315 48.832C73.363 49.3013 74.9417 50.176 76.051 51.456C77.203 52.6933 77.779 54.464 77.779 56.768C77.779 58.8587 77.395 60.8213 76.627 62.656C75.9017 64.4907 74.8777 66.112 73.555 67.52C72.275 68.8853 70.739 69.9733 68.947 70.784C67.1977 71.5947 65.2777 72 63.187 72H44.371L53.331 27.328ZM63.123 67.392C65.3417 67.392 67.219 66.816 68.755 65.664C70.291 64.4693 71.2937 62.656 71.763 60.224C71.9763 59.1147 72.1257 58.304 72.211 57.792C72.2963 57.2373 72.339 56.8107 72.339 56.512C72.339 54.848 71.7843 53.568 70.675 52.672C69.5657 51.7333 67.9443 51.264 65.811 51.264H53.651L50.451 67.392H63.123ZM65.363 46.784C67.7523 46.784 69.715 46.2933 71.251 45.312C72.8297 44.288 73.8537 42.6453 74.323 40.384C74.5363 39.4027 74.6643 38.656 74.707 38.144C74.7497 37.5893 74.771 37.1627 74.771 36.864C74.771 35.328 74.3017 34.1333 73.363 33.28C72.4243 32.384 70.995 31.936 69.075 31.936H57.491L54.547 46.784H65.363ZM101.072 72.768C98.8533 72.768 96.784 72.4053 94.864 71.68C92.9867 70.912 91.344 69.8027 89.936 68.352C88.5707 66.8587 87.4827 65.024 86.672 62.848C85.904 60.672 85.52 58.176 85.52 55.36C85.52 51.648 86.032 48.064 87.056 44.608C88.08 41.152 89.5733 38.1013 91.536 35.456C93.4987 32.768 95.8667 30.6133 98.64 28.992C101.456 27.3707 104.635 26.56 108.176 26.56C110.395 26.56 112.443 26.944 114.32 27.712C116.24 28.48 117.883 29.6107 119.248 31.104C120.656 32.5547 121.744 34.368 122.512 36.544C123.323 38.6773 123.728 41.152 123.728 43.968C123.728 47.68 123.216 51.264 122.192 54.72C121.168 58.176 119.675 61.248 117.712 63.936C115.749 66.5813 113.36 68.7147 110.544 70.336C107.771 71.9573 104.613 72.768 101.072 72.768ZM101.584 68.096C105.552 68.096 108.859 66.7947 111.504 64.192C114.149 61.5467 115.941 57.8987 116.88 53.248L118.16 46.848C118.331 46.0373 118.437 45.2693 118.48 44.544C118.565 43.776 118.608 43.072 118.608 42.432C118.608 39.0187 117.648 36.3093 115.728 34.304C113.808 32.256 111.12 31.232 107.664 31.232C103.696 31.232 100.389 32.5547 97.744 35.2C95.0987 37.8027 93.3067 41.4293 92.368 46.08L91.088 52.48C90.9173 53.2907 90.7893 54.08 90.704 54.848C90.6613 55.5733 90.64 56.256 90.64 56.896C90.64 60.3093 91.6 63.04 93.52 65.088C95.44 67.0933 98.128 68.096 101.584 68.096ZM141.758 27.328L136.254 54.784C136.04 55.7653 135.891 56.5973 135.806 57.28C135.763 57.9627 135.742 58.6667 135.742 59.392C135.742 62.1227 136.467 64.256 137.918 65.792C139.368 67.328 141.374 68.096 143.934 68.096C145.726 68.096 147.304 67.84 148.67 67.328C150.078 66.816 151.315 66.0053 152.382 64.896C153.448 63.744 154.344 62.272 155.07 60.48C155.838 58.6453 156.478 56.4267 156.99 53.824L162.302 27.328H167.486L162.11 54.208C161.427 57.6213 160.552 60.5227 159.486 62.912C158.462 65.2587 157.182 67.1787 155.646 68.672C154.152 70.1227 152.382 71.168 150.334 71.808C148.328 72.448 146.003 72.768 143.358 72.768C139.347 72.768 136.232 71.6587 134.014 69.44C131.795 67.1787 130.686 64 130.686 59.904C130.686 58.9227 130.728 57.8773 130.814 56.768C130.942 55.6587 131.134 54.464 131.39 53.184L136.574 27.328H141.758ZM192.526 31.936L184.526 72H179.342L187.342 31.936H173.71L174.606 27.328H207.054L206.158 31.936H192.526Z" fill="#C097C6"/>
</mask>
<g mask="url(#mask0_27_11)">
<rect y="48" width="205" height="26" fill="#C097C6"/>
</g>
<mask id="mask1_27_11" style="mask-type:alpha" maskUnits="userSpaceOnUse" x="5" y="26" width="208" height="47">
<path d="M36.696 72L35.032 58.816H17.688L10.776 72H5.272L29.144 27.328H35.992L42.008 72H36.696ZM31.768 32.256H31.448L20.056 54.208H34.52L31.768 32.256ZM58.331 27.328H74.779C78.235 27.328 80.8803 28.1813 82.715 29.888C84.5497 31.5947 85.467 33.92 85.467 36.864C85.467 38.2293 85.2537 39.552 84.827 40.832C84.443 42.0693 83.867 43.2 83.099 44.224C82.331 45.248 81.371 46.144 80.219 46.912C79.1097 47.6373 77.8297 48.1707 76.379 48.512L76.315 48.832C78.363 49.3013 79.9417 50.176 81.051 51.456C82.203 52.6933 82.779 54.464 82.779 56.768C82.779 58.8587 82.395 60.8213 81.627 62.656C80.9017 64.4907 79.8777 66.112 78.555 67.52C77.275 68.8853 75.739 69.9733 73.947 70.784C72.1977 71.5947 70.2777 72 68.187 72H49.371L58.331 27.328ZM68.123 67.392C70.3417 67.392 72.219 66.816 73.755 65.664C75.291 64.4693 76.2937 62.656 76.763 60.224C76.9763 59.1147 77.1257 58.304 77.211 57.792C77.2963 57.2373 77.339 56.8107 77.339 56.512C77.339 54.848 76.7843 53.568 75.675 52.672C74.5657 51.7333 72.9443 51.264 70.811 51.264H58.651L55.451 67.392H68.123ZM70.363 46.784C72.7523 46.784 74.715 46.2933 76.251 45.312C77.8297 44.288 78.8537 42.6453 79.323 40.384C79.5363 39.4027 79.6643 38.656 79.707 38.144C79.7497 37.5893 79.771 37.1627 79.771 36.864C79.771 35.328 79.3017 34.1333 78.363 33.28C77.4243 32.384 75.995 31.936 74.075 31.936H62.491L59.547 46.784H70.363ZM106.072 72.768C103.853 72.768 101.784 72.4053 99.864 71.68C97.9867 70.912 96.344 69.8027 94.936 68.352C93.5707 66.8587 92.4827 65.024 91.672 62.848C90.904 60.672 90.52 58.176 90.52 55.36C90.52 51.648 91.032 48.064 92.056 44.608C93.08 41.152 94.5733 38.1013 96.536 35.456C98.4987 32.768 100.867 30.6133 103.64 28.992C106.456 27.3707 109.635 26.56 113.176 26.56C115.395 26.56 117.443 26.944 119.32 27.712C121.24 28.48 122.883 29.6107 124.248 31.104C125.656 32.5547 126.744 34.368 127.512 36.544C128.323 38.6773 128.728 41.152 128.728 43.968C128.728 47.68 128.216 51.264 127.192 54.72C126.168 58.176 124.675 61.248 122.712 63.936C120.749 66.5813 118.36 68.7147 115.544 70.336C112.771 71.9573 109.613 72.768 106.072 72.768ZM106.584 68.096C110.552 68.096 113.859 66.7947 116.504 64.192C119.149 61.5467 120.941 57.8987 121.88 53.248L123.16 46.848C123.331 46.0373 123.437 45.2693 123.48 44.544C123.565 43.776 123.608 43.072 123.608 42.432C123.608 39.0187 122.648 36.3093 120.728 34.304C118.808 32.256 116.12 31.232 112.664 31.232C108.696 31.232 105.389 32.5547 102.744 35.2C100.099 37.8027 98.3067 41.4293 97.368 46.08L96.088 52.48C95.9173 53.2907 95.7893 54.08 95.704 54.848C95.6613 55.5733 95.64 56.256 95.64 56.896C95.64 60.3093 96.6 63.04 98.52 65.088C100.44 67.0933 103.128 68.096 106.584 68.096ZM146.758 27.328L141.254 54.784C141.04 55.7653 140.891 56.5973 140.806 57.28C140.763 57.9627 140.742 58.6667 140.742 59.392C140.742 62.1227 141.467 64.256 142.918 65.792C144.368 67.328 146.374 68.096 148.934 68.096C150.726 68.096 152.304 67.84 153.67 67.328C155.078 66.816 156.315 66.0053 157.382 64.896C158.448 63.744 159.344 62.272 160.07 60.48C160.838 58.6453 161.478 56.4267 161.99 53.824L167.302 27.328H172.486L167.11 54.208C166.427 57.6213 165.552 60.5227 164.486 62.912C163.462 65.2587 162.182 67.1787 160.646 68.672C159.152 70.1227 157.382 71.168 155.334 71.808C153.328 72.448 151.003 72.768 148.358 72.768C144.347 72.768 141.232 71.6587 139.014 69.44C136.795 67.1787 135.686 64 135.686 59.904C135.686 58.9227 135.728 57.8773 135.814 56.768C135.942 55.6587 136.134 54.464 136.39 53.184L141.574 27.328H146.758ZM197.526 31.936L189.526 72H184.342L192.342 31.936H178.71L179.606 27.328H212.054L211.158 31.936H197.526Z" fill="#C097C6"/>
</mask>
<g mask="url(#mask1_27_11)">
<rect x="7" y="22" width="205" height="26" fill="#C097C6"/>
</g>
</svg>
