<svg width="272" height="47" viewBox="0 0 272 47" fill="none" xmlns="http://www.w3.org/2000/svg">
<path d="M15.56 46.768C13.384 46.768 11.3787 46.384 9.544 45.616C7.70933 44.848 6.10933 43.7173 4.744 42.224C3.42133 40.688 2.376 38.832 1.608 36.656C0.882667 34.4373 0.52 31.8773 0.52 28.976C0.52 25.0933 1.032 21.4453 2.056 18.032C3.08 14.576 4.53067 11.568 6.408 9.008C8.28533 6.40533 10.5467 4.35733 13.192 2.864C15.8373 1.328 18.7813 0.559998 22.024 0.559998C25.6507 0.559998 28.6587 1.392 31.048 3.056C33.48 4.72 35.2507 7.28 36.36 10.736L31.688 12.848C30.8773 10.3307 29.6827 8.432 28.104 7.152C26.5253 5.872 24.328 5.232 21.512 5.232C19.8053 5.232 18.184 5.552 16.648 6.192C15.1547 6.832 13.7893 7.74933 12.552 8.944C11.3573 10.096 10.312 11.504 9.416 13.168C8.56267 14.7893 7.944 16.624 7.56 18.672L6.088 26.032C5.91733 26.8427 5.81067 27.5893 5.768 28.272C5.72533 28.9547 5.704 29.616 5.704 30.256C5.704 32.0053 5.93867 33.6053 6.408 35.056C6.87733 36.5067 7.53867 37.7653 8.392 38.832C9.24533 39.856 10.2907 40.6667 11.528 41.264C12.808 41.8187 14.2587 42.096 15.88 42.096C17.416 42.096 18.7813 41.904 19.976 41.52C21.2133 41.136 22.3013 40.6027 23.24 39.92C24.2213 39.1947 25.096 38.32 25.864 37.296C26.6747 36.2293 27.4427 35.056 28.168 33.776L32.52 35.952C30.5573 39.664 28.232 42.3947 25.544 44.144C22.856 45.8933 19.528 46.768 15.56 46.768ZM54.572 46.768C52.3533 46.768 50.284 46.4053 48.364 45.68C46.4867 44.912 44.844 43.8027 43.436 42.352C42.0707 40.8587 40.9827 39.024 40.172 36.848C39.404 34.672 39.02 32.176 39.02 29.36C39.02 25.648 39.532 22.064 40.556 18.608C41.58 15.152 43.0733 12.1013 45.036 9.456C46.9987 6.768 49.3667 4.61333 52.14 2.992C54.956 1.37066 58.1347 0.559998 61.676 0.559998C63.8947 0.559998 65.9427 0.943998 67.82 1.712C69.74 2.48 71.3827 3.61066 72.748 5.104C74.156 6.55466 75.244 8.368 76.012 10.544C76.8227 12.6773 77.228 15.152 77.228 17.968C77.228 21.68 76.716 25.264 75.692 28.72C74.668 32.176 73.1747 35.248 71.212 37.936C69.2493 40.5813 66.86 42.7147 64.044 44.336C61.2707 45.9573 58.1133 46.768 54.572 46.768ZM55.084 42.096C59.052 42.096 62.3587 40.7947 65.004 38.192C67.6493 35.5467 69.4413 31.8987 70.38 27.248L71.66 20.848C71.8307 20.0373 71.9373 19.2693 71.98 18.544C72.0653 17.776 72.108 17.072 72.108 16.432C72.108 13.0187 71.148 10.3093 69.228 8.304C67.308 6.256 64.62 5.232 61.164 5.232C57.196 5.232 53.8893 6.55466 51.244 9.2C48.5987 11.8027 46.8067 15.4293 45.868 20.08L44.588 26.48C44.4173 27.2907 44.2893 28.08 44.204 28.848C44.1613 29.5733 44.14 30.256 44.14 30.896C44.14 34.3093 45.1 37.04 47.02 39.088C48.94 41.0933 51.628 42.096 55.084 42.096ZM97.8175 19.12L94.2975 8.432H93.9775L86.4895 46H81.4335L90.3935 1.328H96.4095L106.138 28.208L109.658 38.896H109.978L117.466 1.328H122.522L113.562 46H107.546L97.8175 19.12ZM147.776 5.936L139.776 46H134.592L142.592 5.936H128.96L129.856 1.328H162.304L161.408 5.936H147.776ZM184.509 46L182.845 32.816H165.501L158.589 46H153.084L176.957 1.328H183.805L189.821 46H184.509ZM179.581 6.256H179.261L167.869 28.208H182.333L179.581 6.256ZM212.31 46.768C210.134 46.768 208.129 46.384 206.294 45.616C204.459 44.848 202.859 43.7173 201.494 42.224C200.171 40.688 199.126 38.832 198.358 36.656C197.633 34.4373 197.27 31.8773 197.27 28.976C197.27 25.0933 197.782 21.4453 198.806 18.032C199.83 14.576 201.281 11.568 203.158 9.008C205.035 6.40533 207.297 4.35733 209.942 2.864C212.587 1.328 215.531 0.559998 218.774 0.559998C222.401 0.559998 225.409 1.392 227.798 3.056C230.23 4.72 232.001 7.28 233.11 10.736L228.438 12.848C227.627 10.3307 226.433 8.432 224.854 7.152C223.275 5.872 221.078 5.232 218.262 5.232C216.555 5.232 214.934 5.552 213.398 6.192C211.905 6.832 210.539 7.74933 209.302 8.944C208.107 10.096 207.062 11.504 206.166 13.168C205.313 14.7893 204.694 16.624 204.31 18.672L202.838 26.032C202.667 26.8427 202.561 27.5893 202.518 28.272C202.475 28.9547 202.454 29.616 202.454 30.256C202.454 32.0053 202.689 33.6053 203.158 35.056C203.627 36.5067 204.289 37.7653 205.142 38.832C205.995 39.856 207.041 40.6667 208.278 41.264C209.558 41.8187 211.009 42.096 212.63 42.096C214.166 42.096 215.531 41.904 216.726 41.52C217.963 41.136 219.051 40.6027 219.99 39.92C220.971 39.1947 221.846 38.32 222.614 37.296C223.425 36.2293 224.193 35.056 224.918 33.776L229.27 35.952C227.307 39.664 224.982 42.3947 222.294 44.144C219.606 45.8933 216.278 46.768 212.31 46.768ZM256.713 5.936L248.713 46H243.529L251.529 5.936H237.897L238.793 1.328H271.241L270.345 5.936H256.713Z" fill="#C097C6"/>
</svg>
