<svg width="282" height="74" viewBox="0 0 282 74" fill="none" xmlns="http://www.w3.org/2000/svg">
<mask id="mask0_29_28" style="mask-type:alpha" maskUnits="userSpaceOnUse" x="3" y="26" width="272" height="47">
<path d="M18.56 72.768C16.384 72.768 14.3787 72.384 12.544 71.616C10.7093 70.848 9.10933 69.7173 7.744 68.224C6.42133 66.688 5.376 64.832 4.608 62.656C3.88267 60.4373 3.52 57.8773 3.52 54.976C3.52 51.0933 4.032 47.4453 5.056 44.032C6.08 40.576 7.53067 37.568 9.408 35.008C11.2853 32.4053 13.5467 30.3573 16.192 28.864C18.8373 27.328 21.7813 26.56 25.024 26.56C28.6507 26.56 31.6587 27.392 34.048 29.056C36.48 30.72 38.2507 33.28 39.36 36.736L34.688 38.848C33.8773 36.3307 32.6827 34.432 31.104 33.152C29.5253 31.872 27.328 31.232 24.512 31.232C22.8053 31.232 21.184 31.552 19.648 32.192C18.1547 32.832 16.7893 33.7493 15.552 34.944C14.3573 36.096 13.312 37.504 12.416 39.168C11.5627 40.7893 10.944 42.624 10.56 44.672L9.088 52.032C8.91733 52.8427 8.81067 53.5893 8.768 54.272C8.72533 54.9547 8.704 55.616 8.704 56.256C8.704 58.0053 8.93867 59.6053 9.408 61.056C9.87733 62.5067 10.5387 63.7653 11.392 64.832C12.2453 65.856 13.2907 66.6667 14.528 67.264C15.808 67.8187 17.2587 68.096 18.88 68.096C20.416 68.096 21.7813 67.904 22.976 67.52C24.2133 67.136 25.3013 66.6027 26.24 65.92C27.2213 65.1947 28.096 64.32 28.864 63.296C29.6747 62.2293 30.4427 61.056 31.168 59.776L35.52 61.952C33.5573 65.664 31.232 68.3947 28.544 70.144C25.856 71.8933 22.528 72.768 18.56 72.768ZM57.572 72.768C55.3533 72.768 53.284 72.4053 51.364 71.68C49.4867 70.912 47.844 69.8027 46.436 68.352C45.0707 66.8587 43.9827 65.024 43.172 62.848C42.404 60.672 42.02 58.176 42.02 55.36C42.02 51.648 42.532 48.064 43.556 44.608C44.58 41.152 46.0733 38.1013 48.036 35.456C49.9987 32.768 52.3667 30.6133 55.14 28.992C57.956 27.3707 61.1347 26.56 64.676 26.56C66.8947 26.56 68.9427 26.944 70.82 27.712C72.74 28.48 74.3827 29.6107 75.748 31.104C77.156 32.5547 78.244 34.368 79.012 36.544C79.8227 38.6773 80.228 41.152 80.228 43.968C80.228 47.68 79.716 51.264 78.692 54.72C77.668 58.176 76.1747 61.248 74.212 63.936C72.2493 66.5813 69.86 68.7147 67.044 70.336C64.2707 71.9573 61.1133 72.768 57.572 72.768ZM58.084 68.096C62.052 68.096 65.3587 66.7947 68.004 64.192C70.6493 61.5467 72.4413 57.8987 73.38 53.248L74.66 46.848C74.8307 46.0373 74.9373 45.2693 74.98 44.544C75.0653 43.776 75.108 43.072 75.108 42.432C75.108 39.0187 74.148 36.3093 72.228 34.304C70.308 32.256 67.62 31.232 64.164 31.232C60.196 31.232 56.8893 32.5547 54.244 35.2C51.5987 37.8027 49.8067 41.4293 48.868 46.08L47.588 52.48C47.4173 53.2907 47.2893 54.08 47.204 54.848C47.1613 55.5733 47.14 56.256 47.14 56.896C47.14 60.3093 48.1 63.04 50.02 65.088C51.94 67.0933 54.628 68.096 58.084 68.096ZM100.818 45.12L97.2975 34.432H96.9775L89.4895 72H84.4335L93.3935 27.328H99.4095L109.138 54.208L112.658 64.896H112.978L120.466 27.328H125.522L116.562 72H110.546L100.818 45.12ZM150.776 31.936L142.776 72H137.592L145.592 31.936H131.96L132.856 27.328H165.304L164.408 31.936H150.776ZM187.509 72L185.845 58.816H168.501L161.589 72H156.084L179.957 27.328H186.805L192.821 72H187.509ZM182.581 32.256H182.261L170.869 54.208H185.333L182.581 32.256ZM215.31 72.768C213.134 72.768 211.129 72.384 209.294 71.616C207.459 70.848 205.859 69.7173 204.494 68.224C203.171 66.688 202.126 64.832 201.358 62.656C200.633 60.4373 200.27 57.8773 200.27 54.976C200.27 51.0933 200.782 47.4453 201.806 44.032C202.83 40.576 204.281 37.568 206.158 35.008C208.035 32.4053 210.297 30.3573 212.942 28.864C215.587 27.328 218.531 26.56 221.774 26.56C225.401 26.56 228.409 27.392 230.798 29.056C233.23 30.72 235.001 33.28 236.11 36.736L231.438 38.848C230.627 36.3307 229.433 34.432 227.854 33.152C226.275 31.872 224.078 31.232 221.262 31.232C219.555 31.232 217.934 31.552 216.398 32.192C214.905 32.832 213.539 33.7493 212.302 34.944C211.107 36.096 210.062 37.504 209.166 39.168C208.313 40.7893 207.694 42.624 207.31 44.672L205.838 52.032C205.667 52.8427 205.561 53.5893 205.518 54.272C205.475 54.9547 205.454 55.616 205.454 56.256C205.454 58.0053 205.689 59.6053 206.158 61.056C206.627 62.5067 207.289 63.7653 208.142 64.832C208.995 65.856 210.041 66.6667 211.278 67.264C212.558 67.8187 214.009 68.096 215.63 68.096C217.166 68.096 218.531 67.904 219.726 67.52C220.963 67.136 222.051 66.6027 222.99 65.92C223.971 65.1947 224.846 64.32 225.614 63.296C226.425 62.2293 227.193 61.056 227.918 59.776L232.27 61.952C230.307 65.664 227.982 68.3947 225.294 70.144C222.606 71.8933 219.278 72.768 215.31 72.768ZM259.713 31.936L251.713 72H246.529L254.529 31.936H240.897L241.793 27.328H274.241L273.345 31.936H259.713Z" fill="#C097C6"/>
</mask>
<g mask="url(#mask0_29_28)">
<path d="M2 48H273V73H2V48Z" fill="#C097C6"/>
</g>
<mask id="mask1_29_28" style="mask-type:alpha" maskUnits="userSpaceOnUse" x="8" y="27" width="272" height="47">
<path d="M23.56 73.768C21.384 73.768 19.3787 73.384 17.544 72.616C15.7093 71.848 14.1093 70.7173 12.744 69.224C11.4213 67.688 10.376 65.832 9.608 63.656C8.88267 61.4373 8.52 58.8773 8.52 55.976C8.52 52.0933 9.032 48.4453 10.056 45.032C11.08 41.576 12.5307 38.568 14.408 36.008C16.2853 33.4053 18.5467 31.3573 21.192 29.864C23.8373 28.328 26.7813 27.56 30.024 27.56C33.6507 27.56 36.6587 28.392 39.048 30.056C41.48 31.72 43.2507 34.28 44.36 37.736L39.688 39.848C38.8773 37.3307 37.6827 35.432 36.104 34.152C34.5253 32.872 32.328 32.232 29.512 32.232C27.8053 32.232 26.184 32.552 24.648 33.192C23.1547 33.832 21.7893 34.7493 20.552 35.944C19.3573 37.096 18.312 38.504 17.416 40.168C16.5627 41.7893 15.944 43.624 15.56 45.672L14.088 53.032C13.9173 53.8427 13.8107 54.5893 13.768 55.272C13.7253 55.9547 13.704 56.616 13.704 57.256C13.704 59.0053 13.9387 60.6053 14.408 62.056C14.8773 63.5067 15.5387 64.7653 16.392 65.832C17.2453 66.856 18.2907 67.6667 19.528 68.264C20.808 68.8187 22.2587 69.096 23.88 69.096C25.416 69.096 26.7813 68.904 27.976 68.52C29.2133 68.136 30.3013 67.6027 31.24 66.92C32.2213 66.1947 33.096 65.32 33.864 64.296C34.6747 63.2293 35.4427 62.056 36.168 60.776L40.52 62.952C38.5573 66.664 36.232 69.3947 33.544 71.144C30.856 72.8933 27.528 73.768 23.56 73.768ZM62.572 73.768C60.3533 73.768 58.284 73.4053 56.364 72.68C54.4867 71.912 52.844 70.8027 51.436 69.352C50.0707 67.8587 48.9827 66.024 48.172 63.848C47.404 61.672 47.02 59.176 47.02 56.36C47.02 52.648 47.532 49.064 48.556 45.608C49.58 42.152 51.0733 39.1013 53.036 36.456C54.9987 33.768 57.3667 31.6133 60.14 29.992C62.956 28.3707 66.1347 27.56 69.676 27.56C71.8947 27.56 73.9427 27.944 75.82 28.712C77.74 29.48 79.3827 30.6107 80.748 32.104C82.156 33.5547 83.244 35.368 84.012 37.544C84.8227 39.6773 85.228 42.152 85.228 44.968C85.228 48.68 84.716 52.264 83.692 55.72C82.668 59.176 81.1747 62.248 79.212 64.936C77.2493 67.5813 74.86 69.7147 72.044 71.336C69.2707 72.9573 66.1133 73.768 62.572 73.768ZM63.084 69.096C67.052 69.096 70.3587 67.7947 73.004 65.192C75.6493 62.5467 77.4413 58.8987 78.38 54.248L79.66 47.848C79.8307 47.0373 79.9373 46.2693 79.98 45.544C80.0653 44.776 80.108 44.072 80.108 43.432C80.108 40.0187 79.148 37.3093 77.228 35.304C75.308 33.256 72.62 32.232 69.164 32.232C65.196 32.232 61.8893 33.5547 59.244 36.2C56.5987 38.8027 54.8067 42.4293 53.868 47.08L52.588 53.48C52.4173 54.2907 52.2893 55.08 52.204 55.848C52.1613 56.5733 52.14 57.256 52.14 57.896C52.14 61.3093 53.1 64.04 55.02 66.088C56.94 68.0933 59.628 69.096 63.084 69.096ZM105.818 46.12L102.298 35.432H101.978L94.4895 73H89.4335L98.3935 28.328H104.41L114.138 55.208L117.658 65.896H117.978L125.466 28.328H130.522L121.562 73H115.546L105.818 46.12ZM155.776 32.936L147.776 73H142.592L150.592 32.936H136.96L137.856 28.328H170.304L169.408 32.936H155.776ZM192.509 73L190.845 59.816H173.501L166.589 73H161.084L184.957 28.328H191.805L197.821 73H192.509ZM187.581 33.256H187.261L175.869 55.208H190.333L187.581 33.256ZM220.31 73.768C218.134 73.768 216.129 73.384 214.294 72.616C212.459 71.848 210.859 70.7173 209.494 69.224C208.171 67.688 207.126 65.832 206.358 63.656C205.633 61.4373 205.27 58.8773 205.27 55.976C205.27 52.0933 205.782 48.4453 206.806 45.032C207.83 41.576 209.281 38.568 211.158 36.008C213.035 33.4053 215.297 31.3573 217.942 29.864C220.587 28.328 223.531 27.56 226.774 27.56C230.401 27.56 233.409 28.392 235.798 30.056C238.23 31.72 240.001 34.28 241.11 37.736L236.438 39.848C235.627 37.3307 234.433 35.432 232.854 34.152C231.275 32.872 229.078 32.232 226.262 32.232C224.555 32.232 222.934 32.552 221.398 33.192C219.905 33.832 218.539 34.7493 217.302 35.944C216.107 37.096 215.062 38.504 214.166 40.168C213.313 41.7893 212.694 43.624 212.31 45.672L210.838 53.032C210.667 53.8427 210.561 54.5893 210.518 55.272C210.475 55.9547 210.454 56.616 210.454 57.256C210.454 59.0053 210.689 60.6053 211.158 62.056C211.627 63.5067 212.289 64.7653 213.142 65.832C213.995 66.856 215.041 67.6667 216.278 68.264C217.558 68.8187 219.009 69.096 220.63 69.096C222.166 69.096 223.531 68.904 224.726 68.52C225.963 68.136 227.051 67.6027 227.99 66.92C228.971 66.1947 229.846 65.32 230.614 64.296C231.425 63.2293 232.193 62.056 232.918 60.776L237.27 62.952C235.307 66.664 232.982 69.3947 230.294 71.144C227.606 72.8933 224.278 73.768 220.31 73.768ZM264.713 32.936L256.713 73H251.529L259.529 32.936H245.897L246.793 28.328H279.241L278.345 32.936H264.713Z" fill="#C097C6"/>
</mask>
<g mask="url(#mask1_29_28)">
<path d="M9 23H280V48H9V23Z" fill="#C097C6"/>
</g>
</svg>
