<svg width="307" height="73" viewBox="0 0 307 73" fill="none" xmlns="http://www.w3.org/2000/svg">
<mask id="mask0_28_22" style="mask-type:alpha" maskUnits="userSpaceOnUse" x="2" y="26" width="295" height="47">
<path d="M2.496 72L11.456 27.328H27.392C29.3547 27.328 31.04 27.6053 32.448 28.16C33.856 28.672 35.008 29.4187 35.904 30.4C36.8 31.3387 37.44 32.4693 37.824 33.792C38.2507 35.072 38.464 36.48 38.464 38.016C38.464 40.1067 38.1013 42.0693 37.376 43.904C36.6933 45.696 35.712 47.2747 34.432 48.64C33.152 49.9627 31.5733 51.008 29.696 51.776C27.8613 52.544 25.792 52.928 23.488 52.928H11.52L7.68 72H2.496ZM12.48 48.32H24.256C26.3893 48.32 28.16 47.7867 29.568 46.72C30.976 45.6107 31.8933 43.9893 32.32 41.856C32.6187 40.4053 32.8107 39.3813 32.896 38.784C33.024 38.1867 33.088 37.632 33.088 37.12C33.088 35.5413 32.64 34.2827 31.744 33.344C30.848 32.4053 29.2693 31.936 27.008 31.936H15.68L12.48 48.32ZM45.305 72H40.121L49.081 27.328H65.017C66.9797 27.328 68.665 27.6053 70.073 28.16C71.481 28.672 72.633 29.4187 73.529 30.4C74.425 31.3387 75.065 32.4693 75.449 33.792C75.8757 35.072 76.089 36.48 76.089 38.016C76.089 39.7227 75.8117 41.3653 75.257 42.944C74.7023 44.5227 73.913 45.952 72.889 47.232C71.9077 48.4693 70.6917 49.536 69.241 50.432C67.7903 51.328 66.169 51.9467 64.377 52.288L70.905 72H65.337L59.257 52.8H49.145L45.305 72ZM61.881 48.256C64.0143 48.256 65.785 47.7227 67.193 46.656C68.601 45.5467 69.5183 43.9467 69.945 41.856C70.2437 40.4053 70.4357 39.3813 70.521 38.784C70.649 38.1867 70.713 37.632 70.713 37.12C70.713 35.584 70.265 34.3467 69.369 33.408C68.473 32.4267 66.8943 31.936 64.633 31.936H53.305L50.105 48.256H61.881ZM96.3845 72.768C94.1658 72.768 92.0965 72.4053 90.1765 71.68C88.2992 70.912 86.6565 69.8027 85.2485 68.352C83.8832 66.8587 82.7952 65.024 81.9845 62.848C81.2165 60.672 80.8325 58.176 80.8325 55.36C80.8325 51.648 81.3445 48.064 82.3685 44.608C83.3925 41.152 84.8858 38.1013 86.8485 35.456C88.8112 32.768 91.1792 30.6133 93.9525 28.992C96.7685 27.3707 99.9472 26.56 103.489 26.56C105.707 26.56 107.755 26.944 109.632 27.712C111.553 28.48 113.195 29.6107 114.561 31.104C115.969 32.5547 117.057 34.368 117.825 36.544C118.635 38.6773 119.041 41.152 119.041 43.968C119.041 47.68 118.529 51.264 117.505 54.72C116.481 58.176 114.987 61.248 113.025 63.936C111.062 66.5813 108.673 68.7147 105.857 70.336C103.083 71.9573 99.9258 72.768 96.3845 72.768ZM96.8965 68.096C100.865 68.096 104.171 66.7947 106.817 64.192C109.462 61.5467 111.254 57.8987 112.193 53.248L113.472 46.848C113.643 46.0373 113.75 45.2693 113.793 44.544C113.878 43.776 113.921 43.072 113.921 42.432C113.921 39.0187 112.961 36.3093 111.041 34.304C109.121 32.256 106.433 31.232 102.977 31.232C99.0085 31.232 95.7018 32.5547 93.0565 35.2C90.4112 37.8027 88.6192 41.4293 87.6805 46.08L86.4005 52.48C86.2298 53.2907 86.1018 54.08 86.0165 54.848C85.9738 55.5733 85.9525 56.256 85.9525 56.896C85.9525 60.3093 86.9125 63.04 88.8325 65.088C90.7525 67.0933 93.4405 68.096 96.8965 68.096ZM151.805 27.328L145.213 60.096C144.402 64.1067 142.781 67.2213 140.349 69.44C137.96 71.6587 134.866 72.768 131.069 72.768C127.997 72.768 125.458 71.872 123.453 70.08C121.448 68.2453 120.402 65.6213 120.317 62.208L125.053 61.248C125.138 63.2107 125.693 64.8533 126.717 66.176C127.741 67.456 129.277 68.096 131.325 68.096C133.8 68.096 135.741 67.3707 137.149 65.92C138.557 64.4267 139.56 62.2293 140.157 59.328L145.661 31.936H130.685L131.581 27.328H151.805ZM154.496 72L163.456 27.328H189.76L188.8 31.936H167.744L164.736 47.04H183.68L182.784 51.648H163.776L160.64 67.392H182.784L181.888 72H154.496ZM206.123 72.768C203.947 72.768 201.941 72.384 200.107 71.616C198.272 70.848 196.672 69.7173 195.307 68.224C193.984 66.688 192.939 64.832 192.171 62.656C191.445 60.4373 191.083 57.8773 191.083 54.976C191.083 51.0933 191.595 47.4453 192.619 44.032C193.643 40.576 195.093 37.568 196.97 35.008C198.848 32.4053 201.109 30.3573 203.755 28.864C206.4 27.328 209.344 26.56 212.587 26.56C216.213 26.56 219.221 27.392 221.611 29.056C224.043 30.72 225.813 33.28 226.923 36.736L222.251 38.848C221.44 36.3307 220.245 34.432 218.667 33.152C217.088 31.872 214.891 31.232 212.075 31.232C210.368 31.232 208.747 31.552 207.211 32.192C205.717 32.832 204.352 33.7493 203.115 34.944C201.92 36.096 200.875 37.504 199.979 39.168C199.125 40.7893 198.507 42.624 198.123 44.672L196.651 52.032C196.48 52.8427 196.373 53.5893 196.331 54.272C196.288 54.9547 196.267 55.616 196.267 56.256C196.267 58.0053 196.501 59.6053 196.97 61.056C197.44 62.5067 198.101 63.7653 198.955 64.832C199.808 65.856 200.853 66.6667 202.091 67.264C203.371 67.8187 204.821 68.096 206.443 68.096C207.979 68.096 209.344 67.904 210.539 67.52C211.776 67.136 212.864 66.6027 213.803 65.92C214.784 65.1947 215.659 64.32 216.427 63.296C217.237 62.2293 218.005 61.056 218.731 59.776L223.083 61.952C221.12 65.664 218.795 68.3947 216.107 70.144C213.419 71.8933 210.091 72.768 206.123 72.768ZM250.526 31.936L242.526 72H237.342L245.342 31.936H231.71L232.606 27.328H265.054L264.158 31.936H250.526ZM276.311 72.768C273.026 72.768 270.018 72.128 267.287 70.848C264.556 69.568 262.487 67.5413 261.079 64.768L265.047 61.888C266.37 64.1493 267.991 65.7493 269.911 66.688C271.831 67.6267 274.007 68.096 276.439 68.096C278.316 68.096 279.98 67.8613 281.431 67.392C282.882 66.88 284.076 66.1973 285.015 65.344C285.996 64.448 286.722 63.424 287.191 62.272C287.703 61.12 287.959 59.8827 287.959 58.56C287.959 56.64 287.426 55.104 286.359 53.952C285.292 52.8 283.564 51.9893 281.175 51.52L276.887 50.688C273.73 50.0907 271.298 48.8533 269.591 46.976C267.927 45.056 267.095 42.6453 267.095 39.744C267.095 37.952 267.436 36.2667 268.119 34.688C268.802 33.0667 269.783 31.6587 271.063 30.464C272.386 29.2693 274.007 28.3307 275.927 27.648C277.847 26.9227 280.044 26.56 282.519 26.56C285.975 26.56 288.855 27.2 291.159 28.48C293.506 29.76 295.426 31.424 296.919 33.472L293.143 36.608C291.906 34.944 290.412 33.6427 288.663 32.704C286.914 31.7227 284.759 31.232 282.199 31.232C279.17 31.232 276.759 31.936 274.967 33.344C273.175 34.752 272.279 36.7573 272.279 39.36C272.279 43.1147 274.54 45.44 279.063 46.336L283.351 47.168C286.508 47.7653 288.919 49.0027 290.583 50.88C292.29 52.7573 293.143 55.232 293.143 58.304C293.143 60.3093 292.759 62.1867 291.991 63.936C291.266 65.6853 290.178 67.2213 288.727 68.544C287.319 69.8667 285.57 70.912 283.479 71.68C281.388 72.4053 278.999 72.768 276.311 72.768Z" fill="#C097C6"/>
</mask>
<g mask="url(#mask0_28_22)">
<rect y="50" width="298" height="23" fill="#C097C6"/>
</g>
<mask id="mask1_28_22" style="mask-type:alpha" maskUnits="userSpaceOnUse" x="7" y="26" width="295" height="47">
<path d="M7.496 72L16.456 27.328H32.392C34.3547 27.328 36.04 27.6053 37.448 28.16C38.856 28.672 40.008 29.4187 40.904 30.4C41.8 31.3387 42.44 32.4693 42.824 33.792C43.2507 35.072 43.464 36.48 43.464 38.016C43.464 40.1067 43.1013 42.0693 42.376 43.904C41.6933 45.696 40.712 47.2747 39.432 48.64C38.152 49.9627 36.5733 51.008 34.696 51.776C32.8613 52.544 30.792 52.928 28.488 52.928H16.52L12.68 72H7.496ZM17.48 48.32H29.256C31.3893 48.32 33.16 47.7867 34.568 46.72C35.976 45.6107 36.8933 43.9893 37.32 41.856C37.6187 40.4053 37.8107 39.3813 37.896 38.784C38.024 38.1867 38.088 37.632 38.088 37.12C38.088 35.5413 37.64 34.2827 36.744 33.344C35.848 32.4053 34.2693 31.936 32.008 31.936H20.68L17.48 48.32ZM50.305 72H45.121L54.081 27.328H70.017C71.9797 27.328 73.665 27.6053 75.073 28.16C76.481 28.672 77.633 29.4187 78.529 30.4C79.425 31.3387 80.065 32.4693 80.449 33.792C80.8757 35.072 81.089 36.48 81.089 38.016C81.089 39.7227 80.8117 41.3653 80.257 42.944C79.7023 44.5227 78.913 45.952 77.889 47.232C76.9077 48.4693 75.6917 49.536 74.241 50.432C72.7903 51.328 71.169 51.9467 69.377 52.288L75.905 72H70.337L64.257 52.8H54.145L50.305 72ZM66.881 48.256C69.0143 48.256 70.785 47.7227 72.193 46.656C73.601 45.5467 74.5183 43.9467 74.945 41.856C75.2437 40.4053 75.4357 39.3813 75.521 38.784C75.649 38.1867 75.713 37.632 75.713 37.12C75.713 35.584 75.265 34.3467 74.369 33.408C73.473 32.4267 71.8943 31.936 69.633 31.936H58.305L55.105 48.256H66.881ZM101.385 72.768C99.1658 72.768 97.0965 72.4053 95.1765 71.68C93.2992 70.912 91.6565 69.8027 90.2485 68.352C88.8832 66.8587 87.7952 65.024 86.9845 62.848C86.2165 60.672 85.8325 58.176 85.8325 55.36C85.8325 51.648 86.3445 48.064 87.3685 44.608C88.3925 41.152 89.8858 38.1013 91.8485 35.456C93.8112 32.768 96.1792 30.6133 98.9525 28.992C101.769 27.3707 104.947 26.56 108.489 26.56C110.707 26.56 112.755 26.944 114.632 27.712C116.553 28.48 118.195 29.6107 119.561 31.104C120.969 32.5547 122.057 34.368 122.825 36.544C123.635 38.6773 124.041 41.152 124.041 43.968C124.041 47.68 123.529 51.264 122.505 54.72C121.481 58.176 119.987 61.248 118.025 63.936C116.062 66.5813 113.673 68.7147 110.857 70.336C108.083 71.9573 104.926 72.768 101.385 72.768ZM101.897 68.096C105.865 68.096 109.171 66.7947 111.817 64.192C114.462 61.5467 116.254 57.8987 117.193 53.248L118.472 46.848C118.643 46.0373 118.75 45.2693 118.793 44.544C118.878 43.776 118.921 43.072 118.921 42.432C118.921 39.0187 117.961 36.3093 116.041 34.304C114.121 32.256 111.433 31.232 107.977 31.232C104.009 31.232 100.702 32.5547 98.0565 35.2C95.4112 37.8027 93.6192 41.4293 92.6805 46.08L91.4005 52.48C91.2298 53.2907 91.1018 54.08 91.0165 54.848C90.9738 55.5733 90.9525 56.256 90.9525 56.896C90.9525 60.3093 91.9125 63.04 93.8325 65.088C95.7525 67.0933 98.4405 68.096 101.897 68.096ZM156.805 27.328L150.213 60.096C149.402 64.1067 147.781 67.2213 145.349 69.44C142.96 71.6587 139.866 72.768 136.069 72.768C132.997 72.768 130.458 71.872 128.453 70.08C126.448 68.2453 125.402 65.6213 125.317 62.208L130.053 61.248C130.138 63.2107 130.693 64.8533 131.717 66.176C132.741 67.456 134.277 68.096 136.325 68.096C138.8 68.096 140.741 67.3707 142.149 65.92C143.557 64.4267 144.56 62.2293 145.157 59.328L150.661 31.936H135.685L136.581 27.328H156.805ZM159.496 72L168.456 27.328H194.76L193.8 31.936H172.744L169.736 47.04H188.68L187.784 51.648H168.776L165.64 67.392H187.784L186.888 72H159.496ZM211.123 72.768C208.947 72.768 206.941 72.384 205.107 71.616C203.272 70.848 201.672 69.7173 200.307 68.224C198.984 66.688 197.939 64.832 197.171 62.656C196.445 60.4373 196.083 57.8773 196.083 54.976C196.083 51.0933 196.595 47.4453 197.619 44.032C198.643 40.576 200.093 37.568 201.97 35.008C203.848 32.4053 206.109 30.3573 208.755 28.864C211.4 27.328 214.344 26.56 217.587 26.56C221.213 26.56 224.221 27.392 226.611 29.056C229.043 30.72 230.813 33.28 231.923 36.736L227.251 38.848C226.44 36.3307 225.245 34.432 223.667 33.152C222.088 31.872 219.891 31.232 217.075 31.232C215.368 31.232 213.747 31.552 212.211 32.192C210.717 32.832 209.352 33.7493 208.115 34.944C206.92 36.096 205.875 37.504 204.979 39.168C204.125 40.7893 203.507 42.624 203.123 44.672L201.651 52.032C201.48 52.8427 201.373 53.5893 201.331 54.272C201.288 54.9547 201.267 55.616 201.267 56.256C201.267 58.0053 201.501 59.6053 201.97 61.056C202.44 62.5067 203.101 63.7653 203.955 64.832C204.808 65.856 205.853 66.6667 207.091 67.264C208.371 67.8187 209.821 68.096 211.443 68.096C212.979 68.096 214.344 67.904 215.539 67.52C216.776 67.136 217.864 66.6027 218.803 65.92C219.784 65.1947 220.659 64.32 221.427 63.296C222.237 62.2293 223.005 61.056 223.731 59.776L228.083 61.952C226.12 65.664 223.795 68.3947 221.107 70.144C218.419 71.8933 215.091 72.768 211.123 72.768ZM255.526 31.936L247.526 72H242.342L250.342 31.936H236.71L237.606 27.328H270.054L269.158 31.936H255.526ZM281.311 72.768C278.026 72.768 275.018 72.128 272.287 70.848C269.556 69.568 267.487 67.5413 266.079 64.768L270.047 61.888C271.37 64.1493 272.991 65.7493 274.911 66.688C276.831 67.6267 279.007 68.096 281.439 68.096C283.316 68.096 284.98 67.8613 286.431 67.392C287.882 66.88 289.076 66.1973 290.015 65.344C290.996 64.448 291.722 63.424 292.191 62.272C292.703 61.12 292.959 59.8827 292.959 58.56C292.959 56.64 292.426 55.104 291.359 53.952C290.292 52.8 288.564 51.9893 286.175 51.52L281.887 50.688C278.73 50.0907 276.298 48.8533 274.591 46.976C272.927 45.056 272.095 42.6453 272.095 39.744C272.095 37.952 272.436 36.2667 273.119 34.688C273.802 33.0667 274.783 31.6587 276.063 30.464C277.386 29.2693 279.007 28.3307 280.927 27.648C282.847 26.9227 285.044 26.56 287.519 26.56C290.975 26.56 293.855 27.2 296.159 28.48C298.506 29.76 300.426 31.424 301.919 33.472L298.143 36.608C296.906 34.944 295.412 33.6427 293.663 32.704C291.914 31.7227 289.759 31.232 287.199 31.232C284.17 31.232 281.759 31.936 279.967 33.344C278.175 34.752 277.279 36.7573 277.279 39.36C277.279 43.1147 279.54 45.44 284.063 46.336L288.351 47.168C291.508 47.7653 293.919 49.0027 295.583 50.88C297.29 52.7573 298.143 55.232 298.143 58.304C298.143 60.3093 297.759 62.1867 296.991 63.936C296.266 65.6853 295.178 67.2213 293.727 68.544C292.319 69.8667 290.57 70.912 288.479 71.68C286.388 72.4053 283.999 72.768 281.311 72.768Z" fill="#C097C6"/>
</mask>
<g mask="url(#mask1_28_22)">
<rect x="5" y="25" width="298" height="25" fill="#C097C6"/>
</g>
</svg>
