<svg width="295" height="47" viewBox="0 0 295 47" fill="none" xmlns="http://www.w3.org/2000/svg">
<path d="M0.496 46L9.456 1.328H25.392C27.3547 1.328 29.04 1.60533 30.448 2.16C31.856 2.672 33.008 3.41866 33.904 4.4C34.8 5.33867 35.44 6.46933 35.824 7.792C36.2507 9.072 36.464 10.48 36.464 12.016C36.464 14.1067 36.1013 16.0693 35.376 17.904C34.6933 19.696 33.712 21.2747 32.432 22.64C31.152 23.9627 29.5733 25.008 27.696 25.776C25.8613 26.544 23.792 26.928 21.488 26.928H9.52L5.68 46H0.496ZM10.48 22.32H22.256C24.3893 22.32 26.16 21.7867 27.568 20.72C28.976 19.6107 29.8933 17.9893 30.32 15.856C30.6187 14.4053 30.8107 13.3813 30.896 12.784C31.024 12.1867 31.088 11.632 31.088 11.12C31.088 9.54133 30.64 8.28267 29.744 7.344C28.848 6.40533 27.2693 5.936 25.008 5.936H13.68L10.48 22.32ZM43.305 46H38.121L47.081 1.328H63.017C64.9797 1.328 66.665 1.60533 68.073 2.16C69.481 2.672 70.633 3.41866 71.529 4.4C72.425 5.33867 73.065 6.46933 73.449 7.792C73.8757 9.072 74.089 10.48 74.089 12.016C74.089 13.7227 73.8117 15.3653 73.257 16.944C72.7023 18.5227 71.913 19.952 70.889 21.232C69.9077 22.4693 68.6917 23.536 67.241 24.432C65.7903 25.328 64.169 25.9467 62.377 26.288L68.905 46H63.337L57.257 26.8H47.145L43.305 46ZM59.881 22.256C62.0143 22.256 63.785 21.7227 65.193 20.656C66.601 19.5467 67.5183 17.9467 67.945 15.856C68.2437 14.4053 68.4357 13.3813 68.521 12.784C68.649 12.1867 68.713 11.632 68.713 11.12C68.713 9.584 68.265 8.34666 67.369 7.408C66.473 6.42666 64.8943 5.936 62.633 5.936H51.305L48.105 22.256H59.881ZM94.3845 46.768C92.1658 46.768 90.0965 46.4053 88.1765 45.68C86.2992 44.912 84.6565 43.8027 83.2485 42.352C81.8832 40.8587 80.7952 39.024 79.9845 36.848C79.2165 34.672 78.8325 32.176 78.8325 29.36C78.8325 25.648 79.3445 22.064 80.3685 18.608C81.3925 15.152 82.8858 12.1013 84.8485 9.456C86.8112 6.768 89.1792 4.61333 91.9525 2.992C94.7685 1.37066 97.9472 0.559998 101.489 0.559998C103.707 0.559998 105.755 0.943998 107.632 1.712C109.553 2.48 111.195 3.61066 112.561 5.104C113.969 6.55466 115.057 8.368 115.825 10.544C116.635 12.6773 117.041 15.152 117.041 17.968C117.041 21.68 116.529 25.264 115.505 28.72C114.481 32.176 112.987 35.248 111.025 37.936C109.062 40.5813 106.673 42.7147 103.857 44.336C101.083 45.9573 97.9258 46.768 94.3845 46.768ZM94.8965 42.096C98.8645 42.096 102.171 40.7947 104.817 38.192C107.462 35.5467 109.254 31.8987 110.193 27.248L111.472 20.848C111.643 20.0373 111.75 19.2693 111.793 18.544C111.878 17.776 111.921 17.072 111.921 16.432C111.921 13.0187 110.961 10.3093 109.041 8.304C107.121 6.256 104.433 5.232 100.977 5.232C97.0085 5.232 93.7018 6.55466 91.0565 9.2C88.4112 11.8027 86.6192 15.4293 85.6805 20.08L84.4005 26.48C84.2298 27.2907 84.1018 28.08 84.0165 28.848C83.9738 29.5733 83.9525 30.256 83.9525 30.896C83.9525 34.3093 84.9125 37.04 86.8325 39.088C88.7525 41.0933 91.4405 42.096 94.8965 42.096ZM149.805 1.328L143.213 34.096C142.402 38.1067 140.781 41.2213 138.349 43.44C135.96 45.6587 132.866 46.768 129.069 46.768C125.997 46.768 123.458 45.872 121.453 44.08C119.448 42.2453 118.402 39.6213 118.317 36.208L123.053 35.248C123.138 37.2107 123.693 38.8533 124.717 40.176C125.741 41.456 127.277 42.096 129.325 42.096C131.8 42.096 133.741 41.3707 135.149 39.92C136.557 38.4267 137.56 36.2293 138.157 33.328L143.661 5.936H128.685L129.581 1.328H149.805ZM152.496 46L161.456 1.328H187.76L186.8 5.936H165.744L162.736 21.04H181.68L180.784 25.648H161.776L158.64 41.392H180.784L179.888 46H152.496ZM204.123 46.768C201.947 46.768 199.941 46.384 198.107 45.616C196.272 44.848 194.672 43.7173 193.307 42.224C191.984 40.688 190.939 38.832 190.171 36.656C189.445 34.4373 189.083 31.8773 189.083 28.976C189.083 25.0933 189.595 21.4453 190.619 18.032C191.643 14.576 193.093 11.568 194.97 9.008C196.848 6.40533 199.109 4.35733 201.755 2.864C204.4 1.328 207.344 0.559998 210.587 0.559998C214.213 0.559998 217.221 1.392 219.611 3.056C222.043 4.72 223.813 7.28 224.923 10.736L220.251 12.848C219.44 10.3307 218.245 8.432 216.667 7.152C215.088 5.872 212.891 5.232 210.075 5.232C208.368 5.232 206.747 5.552 205.211 6.192C203.717 6.832 202.352 7.74933 201.115 8.944C199.92 10.096 198.875 11.504 197.979 13.168C197.125 14.7893 196.507 16.624 196.123 18.672L194.651 26.032C194.48 26.8427 194.373 27.5893 194.331 28.272C194.288 28.9547 194.267 29.616 194.267 30.256C194.267 32.0053 194.501 33.6053 194.97 35.056C195.44 36.5067 196.101 37.7653 196.955 38.832C197.808 39.856 198.853 40.6667 200.091 41.264C201.371 41.8187 202.821 42.096 204.443 42.096C205.979 42.096 207.344 41.904 208.539 41.52C209.776 41.136 210.864 40.6027 211.803 39.92C212.784 39.1947 213.659 38.32 214.427 37.296C215.237 36.2293 216.005 35.056 216.731 33.776L221.083 35.952C219.12 39.664 216.795 42.3947 214.107 44.144C211.419 45.8933 208.091 46.768 204.123 46.768ZM248.526 5.936L240.526 46H235.342L243.342 5.936H229.71L230.606 1.328H263.054L262.158 5.936H248.526ZM274.311 46.768C271.026 46.768 268.018 46.128 265.287 44.848C262.556 43.568 260.487 41.5413 259.079 38.768L263.047 35.888C264.37 38.1493 265.991 39.7493 267.911 40.688C269.831 41.6267 272.007 42.096 274.439 42.096C276.316 42.096 277.98 41.8613 279.431 41.392C280.882 40.88 282.076 40.1973 283.015 39.344C283.996 38.448 284.722 37.424 285.191 36.272C285.703 35.12 285.959 33.8827 285.959 32.56C285.959 30.64 285.426 29.104 284.359 27.952C283.292 26.8 281.564 25.9893 279.175 25.52L274.887 24.688C271.73 24.0907 269.298 22.8533 267.591 20.976C265.927 19.056 265.095 16.6453 265.095 13.744C265.095 11.952 265.436 10.2667 266.119 8.688C266.802 7.06666 267.783 5.65866 269.063 4.464C270.386 3.26933 272.007 2.33066 273.927 1.648C275.847 0.922665 278.044 0.559998 280.519 0.559998C283.975 0.559998 286.855 1.2 289.159 2.48C291.506 3.76 293.426 5.424 294.919 7.472L291.143 10.608C289.906 8.944 288.412 7.64267 286.663 6.704C284.914 5.72267 282.759 5.232 280.199 5.232C277.17 5.232 274.759 5.936 272.967 7.344C271.175 8.752 270.279 10.7573 270.279 13.36C270.279 17.1147 272.54 19.44 277.063 20.336L281.351 21.168C284.508 21.7653 286.919 23.0027 288.583 24.88C290.29 26.7573 291.143 29.232 291.143 32.304C291.143 34.3093 290.759 36.1867 289.991 37.936C289.266 39.6853 288.178 41.2213 286.727 42.544C285.319 43.8667 283.57 44.912 281.479 45.68C279.388 46.4053 276.999 46.768 274.311 46.768Z" fill="#C097C6"/>
</svg>
